<svg width="44" height="16" fill="none" xmlns="http://www.w3.org/2000/svg"><path d="M10.12 13.84c.053.187.08.32.08.4a.744.744 0 0 1-.16.48.733.733 0 0 1-.38.28.936.936 0 0 1-.88-.12c-.16-.12-.28-.3-.36-.54l-.8-2.56H3l-.8 2.56c-.08.24-.207.42-.38.54-.16.12-.34.18-.54.18a.854.854 0 0 1-.6-.22.814.814 0 0 1-.24-.6c0-.12.02-.247.06-.38L4.44 1.62c.08-.227.2-.4.36-.52a.85.85 0 0 1 .52-.18c.187 0 .36.06.52.18.16.12.28.293.36.52l3.92 12.22Zm-6.66-3.6h3.68L5.28 4.36l-1.82 5.88ZM13.005 15a.846.846 0 0 1-.62-.26c-.173-.173-.26-.4-.26-.68V1.94c0-.28.087-.507.26-.68.187-.173.4-.26.64-.26h5.18c.253 0 .46.073.62.22.173.147.26.34.26.58 0 .24-.087.433-.26.58-.16.133-.367.2-.62.2h-4.3v4.24h3.26c.253 0 .46.073.62.22.173.147.26.34.26.58 0 .24-.087.433-.26.58a.882.882 0 0 1-.62.22h-3.26v5h4.3c.253 0 .46.073.62.22.173.133.26.32.26.56 0 .24-.087.433-.26.58-.16.147-.367.22-.62.22h-5.2ZM31.429.92c.24 0 .447.087.62.26.187.173.28.407.28.7v12.26c0 .28-.087.507-.26.68a.846.846 0 0 1-.62.26.846.846 0 0 1-.62-.26c-.174-.173-.26-.4-.26-.68v-9l-2.8 5.58c-.253.507-.593.76-1.02.76-.427 0-.767-.253-1.02-.76l-2.84-5.58v9c0 .293-.087.527-.26.7a.883.883 0 0 1-.62.24.846.846 0 0 1-.62-.26c-.174-.173-.26-.4-.26-.68V1.88c0-.293.086-.527.26-.7.187-.173.4-.26.64-.26.227 0 .42.06.58.18.16.12.313.307.46.56l3.7 7.28 3.62-7.28c.267-.493.613-.74 1.04-.74ZM36.228 15.08a.914.914 0 0 1-.64-.26c-.173-.173-.26-.407-.26-.7V1.94c0-.28.087-.507.26-.68.187-.173.4-.26.64-.26h3.46c.76 0 1.44.173 2.04.52a3.737 3.737 0 0 1 1.44 1.44c.347.6.52 1.287.52 2.06 0 .76-.16 1.447-.48 2.06-.32.6-.773 1.073-1.36 1.42-.573.347-1.247.52-2.02.52h-2.72v5.1c0 .293-.087.527-.26.7a.846.846 0 0 1-.62.26Zm3.58-7.64c.6 0 1.093-.22 1.48-.66.387-.44.58-1.027.58-1.76 0-.747-.213-1.34-.64-1.78-.427-.44-.96-.66-1.6-.66h-2.52v4.86h2.7Z" fill="currentColor"/></svg>
